<svg width="14" height="14" viewBox="0 0 14 14" fill="none" xmlns="http://www.w3.org/2000/svg">
<path d="M13.3 0.71001C13.2075 0.617307 13.0976 0.543759 12.9766 0.493577C12.8557 0.443396 12.726 0.417566 12.595 0.417566C12.464 0.417566 12.3344 0.443396 12.2134 0.493577C12.0924 0.543759 11.9825 0.617307 11.89 0.71001L7 5.59001L2.11 0.70001C2.01742 0.607428 1.90751 0.533988 1.78655 0.483883C1.66558 0.433778 1.53593 0.40799 1.405 0.40799C1.27407 0.40799 1.14442 0.433778 1.02346 0.483883C0.902495 0.533988 0.792584 0.607428 0.700002 0.70001C0.60742 0.792592 0.53398 0.902502 0.483875 1.02347C0.43377 1.14443 0.407982 1.27408 0.407982 1.40501C0.407982 1.53594 0.43377 1.66559 0.483875 1.78655C0.53398 1.90752 0.60742 2.01743 0.700002 2.11001L5.59 7.00001L0.700002 11.89C0.60742 11.9826 0.53398 12.0925 0.483875 12.2135C0.43377 12.3344 0.407982 12.4641 0.407982 12.595C0.407982 12.7259 0.43377 12.8556 0.483875 12.9766C0.53398 13.0975 0.60742 13.2074 0.700002 13.3C0.792584 13.3926 0.902495 13.466 1.02346 13.5161C1.14442 13.5662 1.27407 13.592 1.405 13.592C1.53593 13.592 1.66558 13.5662 1.78655 13.5161C1.90751 13.466 2.01742 13.3926 2.11 13.3L7 8.41001L11.89 13.3C11.9826 13.3926 12.0925 13.466 12.2135 13.5161C12.3344 13.5662 12.4641 13.592 12.595 13.592C12.7259 13.592 12.8556 13.5662 12.9765 13.5161C13.0975 13.466 13.2074 13.3926 13.3 13.3C13.3926 13.2074 13.466 13.0975 13.5161 12.9766C13.5662 12.8556 13.592 12.7259 13.592 12.595C13.592 12.4641 13.5662 12.3344 13.5161 12.2135C13.466 12.0925 13.3926 11.9826 13.3 11.89L8.41 7.00001L13.3 2.11001C13.68 1.73001 13.68 1.09001 13.3 0.71001V0.71001Z" fill="black"/>
</svg>
